<mxfile host="app.diagrams.net" agent="Mozilla/5.0 (Windows NT 10.0; Win64; x64) AppleWebKit/537.36 (KHTML, like Gecko) Chrome/140.0.0.0 Safari/537.36 Edg/140.0.0.0" version="28.2.5">
  <diagram name="Страница — 1" id="-z8j3ikDRPW_FMBBFKk5">
    <mxGraphModel dx="2205" dy="794" grid="1" gridSize="10" guides="1" tooltips="1" connect="1" arrows="1" fold="1" page="1" pageScale="1" pageWidth="827" pageHeight="1169" math="0" shadow="0">
      <root>
        <mxCell id="0" />
        <mxCell id="1" parent="0" />
        <mxCell id="l95YaFwWBz44Kl-GLVRw-11" style="edgeStyle=orthogonalEdgeStyle;rounded=0;orthogonalLoop=1;jettySize=auto;html=1;exitX=1;exitY=0.5;exitDx=0;exitDy=0;entryX=0;entryY=0.5;entryDx=0;entryDy=0;" edge="1" parent="1" source="l95YaFwWBz44Kl-GLVRw-2" target="l95YaFwWBz44Kl-GLVRw-10">
          <mxGeometry relative="1" as="geometry" />
        </mxCell>
        <mxCell id="l95YaFwWBz44Kl-GLVRw-2" value="Гость" style="rounded=0;whiteSpace=wrap;html=1;" vertex="1" parent="1">
          <mxGeometry x="-100" y="220" width="180" height="70" as="geometry" />
        </mxCell>
        <mxCell id="l95YaFwWBz44Kl-GLVRw-3" value="ID Гостя" style="ellipse;whiteSpace=wrap;html=1;" vertex="1" parent="1">
          <mxGeometry x="80" y="60" width="170" height="90" as="geometry" />
        </mxCell>
        <mxCell id="l95YaFwWBz44Kl-GLVRw-5" value="ФИО Гостя" style="ellipse;whiteSpace=wrap;html=1;" vertex="1" parent="1">
          <mxGeometry x="-220" y="60" width="170" height="90" as="geometry" />
        </mxCell>
        <mxCell id="l95YaFwWBz44Kl-GLVRw-6" value="email гостя" style="ellipse;whiteSpace=wrap;html=1;" vertex="1" parent="1">
          <mxGeometry x="-350" y="200" width="170" height="90" as="geometry" />
        </mxCell>
        <mxCell id="l95YaFwWBz44Kl-GLVRw-7" style="edgeStyle=orthogonalEdgeStyle;rounded=0;orthogonalLoop=1;jettySize=auto;html=1;exitX=0;exitY=0.5;exitDx=0;exitDy=0;entryX=1;entryY=0.611;entryDx=0;entryDy=0;entryPerimeter=0;" edge="1" parent="1" source="l95YaFwWBz44Kl-GLVRw-2" target="l95YaFwWBz44Kl-GLVRw-6">
          <mxGeometry relative="1" as="geometry" />
        </mxCell>
        <mxCell id="l95YaFwWBz44Kl-GLVRw-8" style="edgeStyle=orthogonalEdgeStyle;rounded=0;orthogonalLoop=1;jettySize=auto;html=1;exitX=0.25;exitY=0;exitDx=0;exitDy=0;entryX=0.559;entryY=1;entryDx=0;entryDy=0;entryPerimeter=0;" edge="1" parent="1" source="l95YaFwWBz44Kl-GLVRw-2" target="l95YaFwWBz44Kl-GLVRw-5">
          <mxGeometry relative="1" as="geometry" />
        </mxCell>
        <mxCell id="l95YaFwWBz44Kl-GLVRw-9" style="edgeStyle=orthogonalEdgeStyle;rounded=0;orthogonalLoop=1;jettySize=auto;html=1;exitX=0.75;exitY=0;exitDx=0;exitDy=0;entryX=0.447;entryY=1.044;entryDx=0;entryDy=0;entryPerimeter=0;" edge="1" parent="1" source="l95YaFwWBz44Kl-GLVRw-2" target="l95YaFwWBz44Kl-GLVRw-3">
          <mxGeometry relative="1" as="geometry" />
        </mxCell>
        <mxCell id="l95YaFwWBz44Kl-GLVRw-13" style="edgeStyle=orthogonalEdgeStyle;rounded=0;orthogonalLoop=1;jettySize=auto;html=1;exitX=1;exitY=0.5;exitDx=0;exitDy=0;entryX=0;entryY=0.5;entryDx=0;entryDy=0;" edge="1" parent="1" source="l95YaFwWBz44Kl-GLVRw-10" target="l95YaFwWBz44Kl-GLVRw-12">
          <mxGeometry relative="1" as="geometry" />
        </mxCell>
        <mxCell id="l95YaFwWBz44Kl-GLVRw-10" value="Бронирует" style="rounded=0;whiteSpace=wrap;html=1;" vertex="1" parent="1">
          <mxGeometry x="210" y="220" width="180" height="70" as="geometry" />
        </mxCell>
        <mxCell id="l95YaFwWBz44Kl-GLVRw-15" style="edgeStyle=orthogonalEdgeStyle;rounded=0;orthogonalLoop=1;jettySize=auto;html=1;exitX=0.25;exitY=0;exitDx=0;exitDy=0;" edge="1" parent="1" source="l95YaFwWBz44Kl-GLVRw-12" target="l95YaFwWBz44Kl-GLVRw-14">
          <mxGeometry relative="1" as="geometry" />
        </mxCell>
        <mxCell id="l95YaFwWBz44Kl-GLVRw-17" style="edgeStyle=orthogonalEdgeStyle;rounded=0;orthogonalLoop=1;jettySize=auto;html=1;exitX=0.5;exitY=0;exitDx=0;exitDy=0;entryX=0.5;entryY=1;entryDx=0;entryDy=0;" edge="1" parent="1" source="l95YaFwWBz44Kl-GLVRw-12" target="l95YaFwWBz44Kl-GLVRw-16">
          <mxGeometry relative="1" as="geometry" />
        </mxCell>
        <mxCell id="l95YaFwWBz44Kl-GLVRw-19" style="edgeStyle=orthogonalEdgeStyle;rounded=0;orthogonalLoop=1;jettySize=auto;html=1;exitX=1;exitY=0;exitDx=0;exitDy=0;entryX=0;entryY=0.5;entryDx=0;entryDy=0;" edge="1" parent="1" source="l95YaFwWBz44Kl-GLVRw-12" target="l95YaFwWBz44Kl-GLVRw-18">
          <mxGeometry relative="1" as="geometry" />
        </mxCell>
        <mxCell id="l95YaFwWBz44Kl-GLVRw-21" style="edgeStyle=orthogonalEdgeStyle;rounded=0;orthogonalLoop=1;jettySize=auto;html=1;exitX=0.5;exitY=1;exitDx=0;exitDy=0;entryX=0.5;entryY=0;entryDx=0;entryDy=0;" edge="1" parent="1" source="l95YaFwWBz44Kl-GLVRw-12" target="l95YaFwWBz44Kl-GLVRw-20">
          <mxGeometry relative="1" as="geometry" />
        </mxCell>
        <mxCell id="l95YaFwWBz44Kl-GLVRw-12" value="Отель" style="rounded=0;whiteSpace=wrap;html=1;" vertex="1" parent="1">
          <mxGeometry x="510" y="220" width="180" height="70" as="geometry" />
        </mxCell>
        <mxCell id="l95YaFwWBz44Kl-GLVRw-14" value="ID отеля" style="ellipse;whiteSpace=wrap;html=1;" vertex="1" parent="1">
          <mxGeometry x="370" y="60" width="170" height="90" as="geometry" />
        </mxCell>
        <mxCell id="l95YaFwWBz44Kl-GLVRw-16" value="Адрес отеля" style="ellipse;whiteSpace=wrap;html=1;" vertex="1" parent="1">
          <mxGeometry x="570" y="60" width="170" height="90" as="geometry" />
        </mxCell>
        <mxCell id="l95YaFwWBz44Kl-GLVRw-18" value="Название отеля" style="ellipse;whiteSpace=wrap;html=1;" vertex="1" parent="1">
          <mxGeometry x="780" y="140" width="170" height="90" as="geometry" />
        </mxCell>
        <mxCell id="l95YaFwWBz44Kl-GLVRw-23" style="edgeStyle=orthogonalEdgeStyle;rounded=0;orthogonalLoop=1;jettySize=auto;html=1;exitX=0;exitY=0.5;exitDx=0;exitDy=0;entryX=1;entryY=0.5;entryDx=0;entryDy=0;" edge="1" parent="1" source="l95YaFwWBz44Kl-GLVRw-20" target="l95YaFwWBz44Kl-GLVRw-22">
          <mxGeometry relative="1" as="geometry" />
        </mxCell>
        <mxCell id="l95YaFwWBz44Kl-GLVRw-20" value="Содержит" style="rhombus;whiteSpace=wrap;html=1;" vertex="1" parent="1">
          <mxGeometry x="510" y="370" width="180" height="90" as="geometry" />
        </mxCell>
        <mxCell id="l95YaFwWBz44Kl-GLVRw-28" style="edgeStyle=orthogonalEdgeStyle;rounded=0;orthogonalLoop=1;jettySize=auto;html=1;exitX=0;exitY=0.5;exitDx=0;exitDy=0;entryX=0.5;entryY=0;entryDx=0;entryDy=0;" edge="1" parent="1" source="l95YaFwWBz44Kl-GLVRw-22" target="l95YaFwWBz44Kl-GLVRw-25">
          <mxGeometry relative="1" as="geometry" />
        </mxCell>
        <mxCell id="l95YaFwWBz44Kl-GLVRw-29" style="edgeStyle=orthogonalEdgeStyle;rounded=0;orthogonalLoop=1;jettySize=auto;html=1;exitX=0.5;exitY=1;exitDx=0;exitDy=0;entryX=0.5;entryY=0;entryDx=0;entryDy=0;" edge="1" parent="1" source="l95YaFwWBz44Kl-GLVRw-22" target="l95YaFwWBz44Kl-GLVRw-26">
          <mxGeometry relative="1" as="geometry" />
        </mxCell>
        <mxCell id="l95YaFwWBz44Kl-GLVRw-22" value="Номер" style="rounded=0;whiteSpace=wrap;html=1;" vertex="1" parent="1">
          <mxGeometry x="210" y="380" width="180" height="70" as="geometry" />
        </mxCell>
        <mxCell id="l95YaFwWBz44Kl-GLVRw-25" value="ID номера" style="ellipse;whiteSpace=wrap;html=1;" vertex="1" parent="1">
          <mxGeometry x="20" y="500" width="170" height="90" as="geometry" />
        </mxCell>
        <mxCell id="l95YaFwWBz44Kl-GLVRw-26" value="Категория" style="ellipse;whiteSpace=wrap;html=1;" vertex="1" parent="1">
          <mxGeometry x="329" y="495" width="170" height="90" as="geometry" />
        </mxCell>
      </root>
    </mxGraphModel>
  </diagram>
</mxfile>
